<svg width="25" height="24" viewBox="0 0 25 24" fill="none" xmlns="http://www.w3.org/2000/svg">
<path d="M18.36 3C19.2897 3 20.0846 3.33008 20.7448 3.99023C21.4049 4.65039 21.735 5.44531 21.735 6.375V17.625C21.735 18.5547 21.4049 19.3496 20.7448 20.0098C20.0846 20.6699 19.2897 21 18.36 21H16.1569V14.0273H18.4889L18.8405 11.3086H16.1569V9.57422C16.1569 9.13672 16.2487 8.80859 16.4323 8.58984C16.6158 8.37109 16.9733 8.26172 17.5045 8.26172L18.9342 8.25V5.82422C18.442 5.75391 17.7467 5.71875 16.8483 5.71875C15.7858 5.71875 14.9362 6.03125 14.2994 6.65625C13.6627 7.28125 13.3444 8.16406 13.3444 9.30469V11.3086H11.0006V14.0273H13.3444V21H7.10999C6.1803 21 5.38538 20.6699 4.72522 20.0098C4.06506 19.3496 3.73499 18.5547 3.73499 17.625V6.375C3.73499 5.44531 4.06506 4.65039 4.72522 3.99023C5.38538 3.33008 6.1803 3 7.10999 3H18.36Z" fill="#008993"/>
</svg>
