<svg width="25" height="24" viewBox="0 0 25 24" fill="none" xmlns="http://www.w3.org/2000/svg">
<path d="M21.682 8.30496C21.6719 7.54758 21.5301 6.79773 21.263 6.08896C21.0313 5.49111 20.6775 4.94816 20.2242 4.49479C19.7708 4.04142 19.2278 3.68761 18.63 3.45596C17.9303 3.19331 17.1912 3.0513 16.444 3.03596C15.482 2.99296 15.177 2.98096 12.735 2.98096C10.293 2.98096 9.97999 2.98096 9.02499 3.03596C8.27815 3.05141 7.53934 3.19343 6.83999 3.45596C6.24205 3.68745 5.69902 4.0412 5.24563 4.49459C4.79224 4.94798 4.43848 5.49101 4.20699 6.08896C3.94383 6.78809 3.80212 7.52707 3.78799 8.27396C3.74499 9.23696 3.73199 9.54196 3.73199 11.984C3.73199 14.426 3.73199 14.738 3.78799 15.694C3.80299 16.442 3.94399 17.18 4.20699 17.881C4.43887 18.4787 4.79289 19.0215 5.24643 19.4747C5.69997 19.9279 6.24306 20.2815 6.84099 20.513C7.53843 20.7862 8.27737 20.9383 9.026 20.963C9.989 21.006 10.294 21.019 12.736 21.019C15.178 21.019 15.491 21.019 16.446 20.963C17.1931 20.9482 17.9324 20.8066 18.632 20.544C19.2297 20.312 19.7725 19.9581 20.2258 19.5048C20.6792 19.0515 21.0331 18.5086 21.265 17.911C21.528 17.211 21.669 16.473 21.684 15.724C21.727 14.762 21.74 14.457 21.74 12.014C21.738 9.57196 21.738 9.26196 21.682 8.30496ZM12.729 16.602C10.175 16.602 8.10599 14.533 8.10599 11.979C8.10599 9.42496 10.175 7.35596 12.729 7.35596C13.9551 7.35596 15.131 7.84302 15.9979 8.71C16.8649 9.57698 17.352 10.7529 17.352 11.979C17.352 13.2051 16.8649 14.3809 15.9979 15.2479C15.131 16.1149 13.9551 16.602 12.729 16.602ZM17.536 8.26296C17.3944 8.26309 17.2542 8.23529 17.1233 8.18117C16.9925 8.12704 16.8736 8.04764 16.7734 7.94751C16.6733 7.84738 16.5939 7.72849 16.5398 7.59764C16.4857 7.4668 16.4579 7.32656 16.458 7.18496C16.458 7.04346 16.4859 6.90334 16.54 6.77262C16.5942 6.64189 16.6735 6.5231 16.7736 6.42305C16.8736 6.32299 16.9924 6.24363 17.1232 6.18948C17.2539 6.13533 17.394 6.10746 17.5355 6.10746C17.677 6.10746 17.8171 6.13533 17.9478 6.18948C18.0786 6.24363 18.1973 6.32299 18.2974 6.42305C18.3975 6.5231 18.4768 6.64189 18.531 6.77262C18.5851 6.90334 18.613 7.04346 18.613 7.18496C18.613 7.78096 18.131 8.26296 17.536 8.26296Z" fill="#008993"/>
<path d="M12.729 14.982C14.3875 14.982 15.732 13.6375 15.732 11.979C15.732 10.3204 14.3875 8.97595 12.729 8.97595C11.0705 8.97595 9.72598 10.3204 9.72598 11.979C9.72598 13.6375 11.0705 14.982 12.729 14.982Z" fill="#008993"/>
</svg>
