<svg width="86" height="14" viewBox="0 0 86 14" fill="none" xmlns="http://www.w3.org/2000/svg">
<path fill-rule="evenodd" clip-rule="evenodd" d="M8.595 5.252L7 0L5.405 5.252H0L4.373 8.652L2.75 14L7 10.695L11.25 14L9.627 8.652L14 5.252H8.595Z" fill="#FFBA09"/>
<path fill-rule="evenodd" clip-rule="evenodd" d="M26.595 5.252L25 0L23.405 5.252H18L22.373 8.652L20.75 14L25 10.695L29.25 14L27.627 8.652L32 5.252H26.595Z" fill="#FFBA0A"/>
<path fill-rule="evenodd" clip-rule="evenodd" d="M44.595 5.252L43 0L41.405 5.252H36L40.373 8.652L38.75 14L43 10.695L47.25 14L45.627 8.652L50 5.252H44.595Z" fill="#FFBA09"/>
<path fill-rule="evenodd" clip-rule="evenodd" d="M62.595 5.252L61 0L59.405 5.252H54L58.373 8.652L56.75 14L61 10.695L65.25 14L63.627 8.652L68 5.252H62.595Z" fill="#FFBA09"/>
<path fill-rule="evenodd" clip-rule="evenodd" d="M80.595 5.252L79 0L77.405 5.252H72L76.373 8.652L74.75 14L79 10.695L83.25 14L81.627 8.652L86 5.252H80.595Z" fill="#DEE2E6"/>
</svg>
