<svg width="25" height="24" viewBox="0 0 25 24" fill="none" xmlns="http://www.w3.org/2000/svg">
<path d="M19.485 21H5.98499C5.36389 21 4.83362 20.7803 4.39417 20.3408C3.95471 19.9014 3.73499 19.3711 3.73499 18.75V5.25C3.73499 4.62891 3.95471 4.09863 4.39417 3.65918C4.83362 3.21973 5.36389 3 5.98499 3H19.485C20.1061 3 20.6364 3.21973 21.0758 3.65918C21.5153 4.09863 21.735 4.62891 21.735 5.25V18.75C21.735 19.3711 21.5153 19.9014 21.0758 20.3408C20.6364 20.7803 20.1061 21 19.485 21ZM18.026 7.5C17.9557 7.53516 17.8502 7.60254 17.7096 7.70215C17.569 7.80176 17.4547 7.87793 17.3668 7.93066C17.2789 7.9834 17.1705 8.03906 17.0416 8.09766C16.9127 8.15625 16.7897 8.19727 16.6725 8.2207C16.2389 7.74023 15.7057 7.5 15.0729 7.5C13.7018 7.5 13.0162 8.07422 13.0162 9.22266V10.2773C11.1295 10.1719 9.68225 9.47461 8.67444 8.18555C8.38147 8.49023 8.23499 8.82422 8.23499 9.1875C8.23499 9.96094 8.52209 10.5469 9.09631 10.9453C9.01428 10.9453 8.91174 10.9512 8.7887 10.9629C8.66565 10.9746 8.56604 10.9746 8.48987 10.9629C8.4137 10.9512 8.32874 10.9219 8.23499 10.875C8.23499 11.4141 8.37854 11.8623 8.66565 12.2197C8.95276 12.5771 9.34827 12.8086 9.85217 12.9141C9.73499 13.0547 9.57092 13.125 9.35999 13.125C9.17249 13.125 9.00842 13.0723 8.8678 12.9668C8.8678 13.4238 9.08752 13.7783 9.52698 14.0303C9.96643 14.2822 10.4615 14.4141 11.0123 14.4258C10.8014 14.7422 10.4938 14.9795 10.0895 15.1377C9.68518 15.2959 9.25452 15.375 8.79749 15.375C8.63342 15.375 8.40784 15.334 8.12073 15.252C7.83362 15.1699 7.6842 15.1289 7.67249 15.1289C7.85999 15.5039 8.24377 15.8262 8.82385 16.0957C9.40393 16.3652 10.1393 16.5 11.0299 16.5C11.8151 16.5 12.5475 16.3623 13.2272 16.0869C13.9069 15.8115 14.4869 15.4453 14.9674 14.9883C15.4479 14.5312 15.861 14.0098 16.2067 13.4238C16.5524 12.8379 16.8102 12.2314 16.9801 11.6045C17.15 10.9775 17.235 10.3594 17.235 9.75C17.235 9.72656 17.3053 9.67676 17.4459 9.60059C17.5865 9.52441 17.7506 9.4248 17.9381 9.30176C18.1256 9.17871 18.2662 9.04102 18.36 8.88867C17.7272 8.88867 17.3053 8.90039 17.0944 8.92383C17.5045 8.67773 17.8151 8.20312 18.026 7.5Z" fill="#008993"/>
</svg>
