<svg width="31" height="31" viewBox="0 0 31 31" fill="none" xmlns="http://www.w3.org/2000/svg">
<path d="M30.3658 9.09062C30.349 7.82832 30.1126 6.57858 29.6674 5.39728C29.2813 4.40087 28.6917 3.49595 27.936 2.74034C27.1804 1.98472 26.2755 1.39504 25.2791 1.00895C24.113 0.571214 22.8811 0.334521 21.6358 0.308952C20.0324 0.237285 19.5241 0.217285 15.4541 0.217285C11.3841 0.217285 10.8624 0.217285 9.27076 0.308952C8.02603 0.334709 6.79468 0.571399 5.6291 1.00895C4.63253 1.39477 3.72747 1.98436 2.97182 2.74001C2.21617 3.49565 1.62658 4.40072 1.24076 5.39728C0.802148 6.56251 0.565969 7.79414 0.54243 9.03895C0.470763 10.644 0.449097 11.1523 0.449097 15.2223C0.449097 19.2923 0.449097 19.8123 0.54243 21.4056C0.56743 22.6523 0.80243 23.8823 1.24076 25.0506C1.62723 26.0469 2.21726 26.9516 2.97316 27.7069C3.72906 28.4622 4.6342 29.0516 5.63076 29.4373C6.79315 29.8926 8.02472 30.1462 9.27243 30.1873C10.8774 30.2589 11.3858 30.2806 15.4558 30.2806C19.5258 30.2806 20.0474 30.2806 21.6391 30.1873C22.8844 30.1628 24.1164 29.9266 25.2824 29.4889C26.2786 29.1024 27.1833 28.5126 27.9388 27.757C28.6944 27.0015 29.2842 26.0968 29.6708 25.1006C30.1091 23.9339 30.3441 22.7039 30.3691 21.4556C30.4408 19.8523 30.4624 19.344 30.4624 15.2723C30.4591 11.2023 30.4591 10.6856 30.3658 9.09062ZM15.4441 22.9189C11.1874 22.9189 7.7391 19.4706 7.7391 15.214C7.7391 10.9573 11.1874 7.50895 15.4441 7.50895C17.4876 7.50895 19.4474 8.32073 20.8924 9.76569C22.3373 11.2107 23.1491 13.1705 23.1491 15.214C23.1491 17.2574 22.3373 19.2172 20.8924 20.6622C19.4474 22.1072 17.4876 22.9189 15.4441 22.9189ZM23.4558 9.02062C23.2198 9.02084 22.986 8.97451 22.7679 8.8843C22.5499 8.79409 22.3517 8.66175 22.1848 8.49488C22.018 8.328 21.8856 8.12985 21.7954 7.91176C21.7052 7.69368 21.6589 7.45995 21.6591 7.22395C21.6591 6.98812 21.7055 6.7546 21.7958 6.53672C21.886 6.31884 22.0183 6.12086 22.1851 5.95411C22.3518 5.78735 22.5498 5.65507 22.7677 5.56482C22.9856 5.47457 23.2191 5.42812 23.4549 5.42812C23.6908 5.42812 23.9243 5.47457 24.1422 5.56482C24.36 5.65507 24.558 5.78735 24.7248 5.95411C24.8915 6.12086 25.0238 6.31884 25.1141 6.53672C25.2043 6.7546 25.2508 6.98812 25.2508 7.22395C25.2508 8.21728 24.4474 9.02062 23.4558 9.02062Z" fill="white"/>
</svg>
