<svg width="31" height="31" viewBox="0 0 31 31" fill="none" xmlns="http://www.w3.org/2000/svg">
<path d="M24.8291 0.249023C26.3786 0.249023 27.7035 0.799154 28.8037 1.89941C29.904 2.99967 30.4541 4.32454 30.4541 5.87402V24.624C30.4541 26.1735 29.904 27.4984 28.8037 28.5986C27.7035 29.6989 26.3786 30.249 24.8291 30.249H21.1572V18.6279H25.0439L25.6299 14.0967H21.1572V11.2061C21.1572 10.4769 21.3102 9.93001 21.6162 9.56543C21.9222 9.20085 22.5179 9.01855 23.4033 9.01855L25.7861 8.99902V4.95605C24.9658 4.83887 23.807 4.78027 22.3096 4.78027C20.5387 4.78027 19.1227 5.30111 18.0615 6.34277C17.0003 7.38444 16.4697 8.85579 16.4697 10.7568V14.0967H12.5635V18.6279H16.4697V30.249H6.0791C4.52962 30.249 3.20475 29.6989 2.10449 28.5986C1.00423 27.4984 0.454102 26.1735 0.454102 24.624V5.87402C0.454102 4.32454 1.00423 2.99967 2.10449 1.89941C3.20475 0.799154 4.52962 0.249023 6.0791 0.249023H24.8291Z" fill="white"/>
</svg>
