<svg width="31" height="31" viewBox="0 0 31 31" fill="none" xmlns="http://www.w3.org/2000/svg">
<path d="M26.7041 30.249H4.2041C3.16895 30.249 2.28516 29.8828 1.55273 29.1504C0.820312 28.418 0.454102 27.5342 0.454102 26.499V3.99902C0.454102 2.96387 0.820312 2.08008 1.55273 1.34766C2.28516 0.615234 3.16895 0.249023 4.2041 0.249023H26.7041C27.7393 0.249023 28.623 0.615234 29.3555 1.34766C30.0879 2.08008 30.4541 2.96387 30.4541 3.99902V26.499C30.4541 27.5342 30.0879 28.418 29.3555 29.1504C28.623 29.8828 27.7393 30.249 26.7041 30.249ZM24.2725 7.74902C24.1553 7.80762 23.9795 7.91992 23.7451 8.08594C23.5107 8.25195 23.3203 8.37891 23.1738 8.4668C23.0273 8.55469 22.8467 8.64746 22.6318 8.74512C22.417 8.84277 22.2119 8.91113 22.0166 8.9502C21.2939 8.14941 20.4053 7.74902 19.3506 7.74902C17.0654 7.74902 15.9229 8.70605 15.9229 10.6201V12.3779C12.7783 12.2021 10.3662 11.04 8.68652 8.8916C8.19824 9.39941 7.9541 9.95605 7.9541 10.5615C7.9541 11.8506 8.43262 12.8271 9.38965 13.4912C9.25293 13.4912 9.08203 13.501 8.87695 13.5205C8.67188 13.54 8.50586 13.54 8.37891 13.5205C8.25195 13.501 8.11035 13.4521 7.9541 13.374C7.9541 14.2725 8.19336 15.0195 8.67188 15.6152C9.15039 16.2109 9.80957 16.5967 10.6494 16.7725C10.4541 17.0068 10.1807 17.124 9.8291 17.124C9.5166 17.124 9.24316 17.0361 9.00879 16.8604C9.00879 17.6221 9.375 18.2129 10.1074 18.6328C10.8398 19.0527 11.665 19.2725 12.583 19.292C12.2314 19.8193 11.7188 20.2148 11.0449 20.4785C10.3711 20.7422 9.65332 20.874 8.8916 20.874C8.61816 20.874 8.24219 20.8057 7.76367 20.6689C7.28516 20.5322 7.03613 20.4639 7.0166 20.4639C7.3291 21.0889 7.96875 21.626 8.93555 22.0752C9.90234 22.5244 11.1279 22.749 12.6123 22.749C13.9209 22.749 15.1416 22.5195 16.2744 22.0605C17.4072 21.6016 18.374 20.9912 19.1748 20.2295C19.9756 19.4678 20.6641 18.5986 21.2402 17.6221C21.8164 16.6455 22.2461 15.6348 22.5293 14.5898C22.8125 13.5449 22.9541 12.5146 22.9541 11.499C22.9541 11.46 23.0713 11.377 23.3057 11.25C23.54 11.123 23.8135 10.957 24.126 10.752C24.4385 10.5469 24.6729 10.3174 24.8291 10.0635C23.7744 10.0635 23.0713 10.083 22.7197 10.1221C23.4033 9.71191 23.9209 8.9209 24.2725 7.74902Z" fill="white"/>
</svg>
