<svg width="31" height="31" viewBox="0 0 31 31" fill="none" xmlns="http://www.w3.org/2000/svg">
<path d="M0.453308 4.03281V26.4652C0.453308 28.5824 2.11997 30.249 4.23709 30.249H26.6695C27.7056 30.249 28.6966 29.7535 29.3272 29.1229C30.0029 28.4472 30.4533 27.5914 30.4533 26.4652V4.03281C30.4533 1.91569 28.7866 0.249023 26.6695 0.249023H4.23709C3.11097 0.249023 2.25511 0.699474 1.57943 1.37515C0.948804 2.00578 0.453308 2.99677 0.453308 4.03281ZM4.50736 7.00578C4.50736 5.56434 5.67853 4.30308 7.11998 4.30308C8.60646 4.30308 9.82268 5.56434 9.82268 7.00578C9.82268 8.49227 8.60646 9.66344 7.11998 9.66344C5.67853 9.66344 4.50736 8.49227 4.50736 7.00578ZM11.7596 25.5193V11.7806C11.7596 11.4652 12.0749 11.195 12.3002 11.195H16.129C16.6695 11.195 16.6695 11.8256 16.6695 12.231C17.7506 11.1499 19.147 10.8797 20.5884 10.8797C24.102 10.8797 26.3542 12.5463 26.3542 16.24V25.5193C26.3542 25.8346 26.0839 26.1049 25.8137 26.1049H21.8497C21.5344 26.1049 21.3092 25.7896 21.3092 25.5193V17.1409C21.3092 15.7445 20.9038 14.9788 19.3272 14.9788C17.3452 14.9788 16.8497 16.2851 16.8497 18.0418V25.5193C16.8497 25.8346 16.5344 26.1049 16.2191 26.1049H12.3002C12.0749 26.1049 11.7596 25.7896 11.7596 25.5193ZM4.59745 25.5193V11.7806C4.59745 11.4652 4.91277 11.195 5.13799 11.195H9.05691C9.41727 11.195 9.6425 11.4202 9.6425 11.7806V25.5193C9.6425 25.8346 9.37223 26.1049 9.05691 26.1049H5.13799C4.86772 26.1049 4.59745 25.7896 4.59745 25.5193Z" fill="white"/>
</svg>
